<svg width="1630" height="627" viewBox="0 0 1630 627" fill="none" xmlns="http://www.w3.org/2000/svg">
<g filter="url(#filter0_d_172_2)">
<path d="M212.205 57.406C214.907 50.6616 224.627 50.7432 227.142 57.6902L410.917 565.448C412.976 571.136 408.134 577.253 401.855 575.953C395.127 574.559 378.729 570.78 368.037 564.671C366.899 564.02 366.146 563.147 365.787 562.706C365.346 562.163 364.952 561.574 364.608 561.017C363.918 559.898 363.182 558.492 362.417 556.91C360.876 553.721 358.989 549.331 356.824 543.974C352.483 533.234 346.87 518.233 340.411 500.331C327.486 464.508 311.085 416.832 294.528 367.858C265.13 280.9 235.205 189.741 223.293 153.324L83.4971 533.419L151.206 528.108L159.516 423.111C159.845 418.951 163.318 415.742 167.491 415.742H277.201C281.619 415.742 285.201 419.324 285.201 423.742V527.689H318.854C322.259 527.689 325.29 529.845 326.409 533.061L337.904 566.109C339.712 571.308 335.852 576.737 330.348 576.737H254.624C250.206 576.737 246.624 573.155 246.624 568.737V462.374H194.792L191.036 569.018C190.885 573.324 187.35 576.737 183.041 576.737H38.8115C33.2838 576.737 29.4219 571.264 31.2744 566.055L212.082 57.7322L212.205 57.406Z" fill="url(#paint0_linear_172_2)" stroke="white" stroke-width="12"/>
<path d="M245.013 44.4025L249.272 43.1115L251.013 48.8537C249.273 43.1116 249.275 43.1111 249.276 43.1105C249.277 43.1103 249.279 43.1099 249.28 43.1096C249.283 43.1087 249.286 43.1077 249.29 43.1066C249.297 43.1044 249.307 43.101 249.317 43.0978C249.339 43.0915 249.366 43.0834 249.4 43.0734C249.469 43.0533 249.564 43.0257 249.685 42.9914C249.926 42.9228 250.271 42.8273 250.721 42.7082C251.62 42.4698 252.935 42.1378 254.666 41.7443C258.129 40.9573 263.256 39.9236 270.047 38.8947C283.63 36.8367 303.863 34.8 330.745 34.8H330.754C357.326 34.8 408.33 34.7993 453.104 35.8078C475.475 36.3117 496.386 37.0699 511.944 38.2141C519.698 38.7843 526.28 39.461 531.096 40.2805C533.474 40.6852 535.652 41.1617 537.397 41.759C538.26 42.054 539.245 42.4548 540.161 43.0226C540.947 43.5096 542.489 44.6069 543.297 46.6252C544.098 48.6285 543.732 50.5323 543.582 51.2453C543.373 52.2386 543.025 53.2402 542.66 54.1525C541.92 56.0026 540.802 58.2408 539.453 60.7121C536.734 65.6951 532.733 72.2518 527.943 79.7629C518.346 94.8135 505.316 114.111 492.373 133.16C479.402 152.251 466.522 171.087 457.138 185.336C452.438 192.472 448.679 198.363 446.239 202.518C445.884 203.122 445.566 203.676 445.282 204.181C457.64 211.455 486.447 227.705 503.876 243.311C533.967 270.254 550.481 301.355 559.376 322.798C572.573 354.611 574.701 399.965 574.33 423.448C573.764 459.305 571.676 481.266 557.771 515.034C546.04 543.525 529.529 560.239 515.12 569.19C507.957 573.639 501.257 576.204 495.885 577.296C493.226 577.837 490.682 578.059 488.464 577.853C487.357 577.75 486.137 577.523 484.958 577.046C483.819 576.585 482.29 575.714 481.19 574.066C479.003 570.784 479.328 566.745 479.812 564.052C480.364 560.976 481.532 557.567 482.983 554.179C485.903 547.366 490.371 539.723 495.035 533.362C505.537 519.042 512.82 507.262 518.025 494.827C523.218 482.423 526.451 469.106 528.548 451.632C533.282 412.178 528.504 372.886 518.41 345.71C507.942 317.526 495.817 302.859 473.249 281.985C458.374 268.226 438.594 262.154 420.171 257.798C411.246 255.688 402.192 253.886 395.012 251.8C388.042 249.775 380.917 247.013 376.799 241.864C374.657 239.187 374.504 235.908 374.695 233.583C374.902 231.077 375.624 228.324 376.592 225.53C378.541 219.905 381.896 212.974 386.063 205.376C394.433 190.115 406.592 171.24 419.002 152.952C431.435 134.632 444.212 116.767 453.873 103.492C457.113 99.0412 460.004 95.1041 462.417 91.8351C460.965 91.9134 459.405 91.9972 457.746 92.0822C446.816 92.642 431.55 93.3235 414.2 93.8117C379.57 94.7862 336.382 94.9985 302.807 91.8752C284.794 90.1996 271.086 85.7908 261.799 81.7346C257.158 79.7077 253.626 77.7708 251.214 76.3098C250.008 75.5792 249.081 74.9675 248.436 74.5226C248.113 74.3003 247.861 74.1196 247.679 73.9865C247.588 73.9201 247.515 73.8653 247.459 73.8234C247.431 73.8024 247.407 73.7843 247.388 73.7697C247.378 73.7625 247.37 73.7558 247.362 73.7502C247.359 73.7475 247.356 73.7447 247.353 73.7424C247.351 73.7412 247.348 73.74 247.348 73.7394C247.346 73.7378 247.358 73.7186 251.013 68.9885L247.344 73.7355L245.013 71.9348V44.4025Z" fill="url(#paint1_linear_172_2)" stroke="white" stroke-width="12"/>
<path d="M217.735 58.1321L36.9273 566.456C36.4642 567.758 37.4297 569.126 38.8117 569.126H183.041C184.118 569.126 185.002 568.273 185.04 567.197L188.931 456.693C188.969 455.616 189.853 454.763 190.93 454.763H250.624C251.728 454.763 252.624 455.658 252.624 456.763V567.126C252.624 568.231 253.519 569.126 254.624 569.126H330.348C331.724 569.126 332.689 567.769 332.237 566.469L320.742 533.422C320.463 532.618 319.705 532.079 318.853 532.079H281.201C280.096 532.079 279.201 531.184 279.201 530.079V422.132C279.201 421.027 278.306 420.132 277.201 420.132H167.491C166.448 420.132 165.58 420.934 165.497 421.974L156.919 530.376C156.841 531.357 156.062 532.136 155.081 532.213L77.746 538.278C76.2924 538.392 75.2092 536.962 75.7125 535.594L221.638 138.834C222.293 137.053 224.789 136.974 225.378 138.779C241.277 187.487 360.493 551.839 371.014 557.851C380.772 563.427 396.277 567.06 403.073 568.467C404.578 568.779 405.798 567.325 405.275 565.88L221.5 58.1217C220.862 56.3574 218.364 56.3643 217.735 58.1321Z" fill="url(#paint2_linear_172_2)" stroke="#373737" stroke-width="3"/>
<path d="M552.223 511.14C529.673 565.905 489.404 573.958 486.182 569.127C482.961 564.295 491.015 547.381 499.874 535.3C521.15 506.288 530.218 486.457 534.505 450.736C539.337 410.467 534.505 370.198 524.035 342.01C513.131 312.654 500.313 297.235 477.323 275.97C445.108 246.171 392.759 250.6 381.484 236.506C370.208 222.413 474.907 83.4851 474.907 83.4851C474.907 83.4851 369.753 90.4664 303.362 84.2905C268.731 81.069 251.013 67.3776 251.013 67.3776V47.2432C251.013 47.2432 277.59 39.1895 330.745 39.1895H330.754C383.917 39.1895 534.505 39.1895 537.726 47.2432C540.948 55.2974 433.617 202.397 437.86 205.097C446.719 210.734 480.442 228.772 499.874 246.171C529.074 272.316 545.147 302.547 553.834 323.487C566.53 354.091 568.699 398.387 568.331 421.743C567.771 457.212 565.73 478.338 552.223 511.14Z" fill="url(#paint3_linear_172_2)" stroke="#373737" stroke-width="3"/>
<path d="M637.274 137.989C637.274 132.923 638.874 129.056 642.074 126.389C645.274 123.723 649.941 122.389 656.074 122.389V185.389H727.074V137.989C727.074 132.923 728.674 129.056 731.874 126.389C735.074 123.723 739.741 122.389 745.874 122.389V250.389C745.874 255.456 744.274 259.323 741.074 261.989C737.874 264.656 733.208 265.989 727.074 265.989V201.989H656.074V250.389C656.074 255.456 654.474 259.323 651.274 261.989C648.074 264.656 643.408 265.989 637.274 265.989V137.989ZM826.398 265.989C815.331 265.989 805.398 263.856 796.598 259.589C787.931 255.189 781.131 249.189 776.198 241.589C771.265 233.856 768.798 225.323 768.798 215.989V171.989C768.798 162.656 771.265 154.256 776.198 146.789C781.131 139.189 787.931 133.256 796.598 128.989C805.398 124.589 815.331 122.389 826.398 122.389C837.598 122.389 847.531 124.589 856.198 128.989C864.998 133.256 871.865 139.189 876.798 146.789C881.731 154.256 884.198 162.656 884.198 171.989V215.989C884.198 225.323 881.731 233.856 876.798 241.589C871.865 249.189 864.998 255.189 856.198 259.589C847.398 263.856 837.465 265.989 826.398 265.989ZM826.398 249.589C838.798 249.589 848.465 246.523 855.398 240.389C862.331 234.256 865.798 226.056 865.798 215.789V172.389C865.798 162.123 862.331 153.989 855.398 147.989C848.465 141.856 838.798 138.789 826.398 138.789C814.131 138.789 804.531 141.856 797.598 147.989C790.665 153.989 787.198 162.123 787.198 172.389V215.789C787.198 226.056 790.665 234.256 797.598 240.389C804.531 246.523 814.131 249.589 826.398 249.589ZM962.196 265.989C951.663 265.989 942.13 263.856 933.596 259.589C925.063 255.323 918.33 249.456 913.396 241.989C908.596 234.389 906.196 225.923 906.196 216.589V137.989C906.196 132.923 907.796 129.056 910.996 126.389C914.196 123.723 918.863 122.389 924.996 122.389V216.589C924.996 226.323 928.396 234.189 935.196 240.189C942.13 246.189 951.13 249.189 962.196 249.189C973.263 249.189 982.196 246.189 988.996 240.189C995.796 234.189 999.196 226.323 999.196 216.589V137.989C999.196 132.923 1000.8 129.056 1004 126.389C1007.2 123.723 1011.86 122.389 1018 122.389V216.589C1018 225.923 1015.6 234.389 1010.8 241.989C1006 249.456 999.33 255.323 990.796 259.589C982.263 263.856 972.73 265.989 962.196 265.989ZM1095.09 265.989C1083.89 265.989 1074.15 264.389 1065.89 261.189C1057.75 257.989 1051.55 253.723 1047.29 248.389C1043.02 243.056 1040.89 237.323 1040.89 231.189C1040.89 226.123 1042.22 222.256 1044.89 219.589C1047.55 216.789 1051.62 215.389 1057.09 215.389C1057.09 226.723 1060.49 235.389 1067.29 241.389C1074.09 247.256 1083.62 250.189 1095.89 250.189C1107.62 250.189 1116.62 248.256 1122.89 244.389C1129.15 240.389 1132.29 234.523 1132.29 226.789C1132.29 222.123 1131.09 218.323 1128.69 215.389C1126.42 212.323 1122.49 209.723 1116.89 207.589C1111.42 205.323 1103.49 203.056 1093.09 200.789C1080.82 198.123 1071.09 195.056 1063.89 191.589C1056.69 187.989 1051.42 183.656 1048.09 178.589C1044.75 173.523 1043.09 167.256 1043.09 159.789C1043.09 152.323 1045.15 145.789 1049.29 140.189C1053.55 134.456 1059.55 130.056 1067.29 126.989C1075.02 123.923 1084.02 122.389 1094.29 122.389C1104.02 122.389 1112.69 123.789 1120.29 126.589C1128.02 129.256 1134.02 133.123 1138.29 138.189C1142.69 143.123 1144.89 148.723 1144.89 154.989C1144.89 158.856 1143.62 161.923 1141.09 164.189C1138.69 166.323 1134.89 167.389 1129.69 167.389C1128.22 157.256 1124.62 149.856 1118.89 145.189C1113.29 140.523 1105.09 138.189 1094.29 138.189C1083.89 138.189 1075.89 140.056 1070.29 143.789C1064.69 147.389 1061.89 152.523 1061.89 159.189C1061.89 163.856 1062.89 167.723 1064.89 170.789C1067.02 173.723 1070.55 176.256 1075.49 178.389C1080.55 180.523 1087.62 182.589 1096.69 184.589C1110.29 187.523 1120.95 190.789 1128.69 194.389C1136.55 197.989 1142.22 202.389 1145.69 207.589C1149.15 212.789 1150.89 219.189 1150.89 226.789C1150.89 238.923 1145.82 248.523 1135.69 255.589C1125.55 262.523 1112.02 265.989 1095.09 265.989ZM1173.8 132.989C1173.8 130.456 1174.73 128.389 1176.6 126.789C1178.46 125.056 1180.73 124.189 1183.4 124.189H1272C1272 129.789 1270.86 133.923 1268.6 136.589C1266.33 139.256 1262.8 140.589 1258 140.589H1192.6V185.389H1248.6C1248.6 190.989 1247.46 195.123 1245.2 197.789C1242.93 200.456 1239.46 201.789 1234.8 201.789H1192.6V247.789H1262.2C1266.86 247.789 1270.33 249.123 1272.6 251.789C1274.86 254.456 1276 258.589 1276 264.189H1183.4C1180.73 264.189 1178.46 263.389 1176.6 261.789C1174.73 260.056 1173.8 257.923 1173.8 255.389V132.989ZM1403.16 265.989C1392.09 265.989 1382.16 263.856 1373.36 259.589C1364.69 255.189 1357.89 249.189 1352.96 241.589C1348.02 233.856 1345.56 225.323 1345.56 215.989V171.989C1345.56 162.656 1348.02 154.256 1352.96 146.789C1357.89 139.189 1364.69 133.256 1373.36 128.989C1382.16 124.589 1392.09 122.389 1403.16 122.389C1414.36 122.389 1424.29 124.589 1432.96 128.989C1441.76 133.256 1448.62 139.189 1453.56 146.789C1458.49 154.256 1460.96 162.656 1460.96 171.989V215.989C1460.96 225.323 1458.49 233.856 1453.56 241.589C1448.62 249.189 1441.76 255.189 1432.96 259.589C1424.16 263.856 1414.22 265.989 1403.16 265.989ZM1403.16 249.589C1415.56 249.589 1425.22 246.523 1432.16 240.389C1439.09 234.256 1442.56 226.056 1442.56 215.789V172.389C1442.56 162.123 1439.09 153.989 1432.16 147.989C1425.22 141.856 1415.56 138.789 1403.16 138.789C1390.89 138.789 1381.29 141.856 1374.36 147.989C1367.42 153.989 1363.96 162.123 1363.96 172.389V215.789C1363.96 226.056 1367.42 234.256 1374.36 240.389C1381.29 246.523 1390.89 249.589 1403.16 249.589ZM1483.95 132.989C1483.95 130.456 1484.89 128.389 1486.75 126.789C1488.62 125.056 1490.89 124.189 1493.55 124.189H1582.75C1582.75 129.789 1581.62 133.923 1579.35 136.589C1577.09 139.256 1573.62 140.589 1568.95 140.589H1502.75V184.389H1558.75C1558.75 189.989 1557.62 194.123 1555.35 196.789C1553.09 199.456 1549.62 200.789 1544.95 200.789H1502.75V250.789C1502.75 255.989 1501.22 259.856 1498.15 262.389C1495.09 264.789 1490.35 265.989 1483.95 265.989V132.989ZM700.751 392.989C700.751 390.456 701.684 388.389 703.551 386.789C705.418 385.056 707.684 384.189 710.351 384.189H799.551C799.551 389.789 798.418 393.923 796.151 396.589C793.884 399.256 790.418 400.589 785.751 400.589H719.551V444.389H775.551C775.551 449.989 774.418 454.123 772.151 456.789C769.884 459.456 766.418 460.789 761.751 460.789H719.551V510.789C719.551 515.989 718.018 519.856 714.951 522.389C711.884 524.789 707.151 525.989 700.751 525.989V392.989ZM820.478 392.989C820.478 390.456 821.344 388.389 823.078 386.789C824.944 385.056 827.278 384.189 830.078 384.189H885.278C898.211 384.189 908.478 387.989 916.078 395.589C923.811 403.056 927.678 413.056 927.678 425.589C927.678 441.323 920.811 452.456 907.078 458.989V459.589C913.078 462.123 917.678 465.989 920.878 471.189C924.078 476.256 925.678 482.456 925.678 489.789V510.389C925.678 515.456 924.078 519.323 920.878 521.989C917.678 524.656 913.011 525.989 906.878 525.989V490.989C906.878 483.123 905.078 477.189 901.478 473.189C898.011 469.056 892.811 466.989 885.878 466.989H839.078V510.389C839.078 515.456 837.478 519.323 834.278 521.989C831.211 524.656 826.611 525.989 820.478 525.989V392.989ZM884.678 450.789C892.011 450.789 897.811 448.523 902.078 443.989C906.478 439.456 908.678 433.256 908.678 425.389C908.678 417.389 906.611 411.256 902.478 406.989C898.344 402.723 892.411 400.589 884.678 400.589H839.078V450.789H884.678ZM957.681 397.989C957.681 393.056 959.281 389.256 962.481 386.589C965.814 383.789 970.481 382.389 976.481 382.389V510.389C976.481 515.323 974.814 519.189 971.481 521.989C968.281 524.656 963.681 525.989 957.681 525.989V397.989ZM1008.56 392.989C1008.56 390.456 1009.5 388.389 1011.36 386.789C1013.23 385.056 1015.5 384.189 1018.16 384.189H1106.76C1106.76 389.789 1105.63 393.923 1103.36 396.589C1101.1 399.256 1097.56 400.589 1092.76 400.589H1027.36V445.389H1083.36C1083.36 450.989 1082.23 455.123 1079.96 457.789C1077.7 460.456 1074.23 461.789 1069.56 461.789H1027.36V507.789H1096.96C1101.63 507.789 1105.1 509.123 1107.36 511.789C1109.63 514.456 1110.76 518.589 1110.76 524.189H1018.16C1015.5 524.189 1013.23 523.389 1011.36 521.789C1009.5 520.056 1008.56 517.923 1008.56 515.389V392.989ZM1133.76 398.589C1133.76 393.523 1135.29 389.589 1138.36 386.789C1141.56 383.856 1145.96 382.389 1151.56 382.389L1229.16 500.389L1230.56 499.189L1224.76 489.589V382.389C1230.89 382.389 1235.49 383.723 1238.56 386.389C1241.76 389.056 1243.36 392.923 1243.36 397.989V511.189C1243.36 515.456 1241.83 518.989 1238.76 521.789C1235.83 524.589 1232.03 525.989 1227.36 525.989L1147.96 405.389L1146.56 406.589L1152.36 416.189V510.389C1152.36 515.456 1150.76 519.323 1147.56 521.989C1144.49 524.656 1139.89 525.989 1133.76 525.989V398.589ZM1281.05 524.189C1278.39 524.189 1276.12 523.389 1274.25 521.789C1272.39 520.056 1271.45 517.923 1271.45 515.389V392.989C1271.45 390.456 1272.32 388.389 1274.05 386.789C1275.92 385.056 1278.25 384.189 1281.05 384.189H1327.85C1339.19 384.189 1349.19 386.323 1357.85 390.589C1366.52 394.856 1373.25 400.856 1378.05 408.589C1382.99 416.189 1385.45 424.923 1385.45 434.789V473.189C1385.45 483.056 1382.99 491.856 1378.05 499.589C1373.25 507.323 1366.45 513.389 1357.65 517.789C1348.99 522.056 1339.05 524.189 1327.85 524.189H1281.05ZM1325.85 507.789C1338.65 507.789 1348.65 504.789 1355.85 498.789C1363.05 492.656 1366.65 484.189 1366.65 473.389V434.589C1366.65 423.923 1363.05 415.589 1355.85 409.589C1348.65 403.589 1338.65 400.589 1325.85 400.589H1290.25V507.789H1325.85ZM1461.49 525.989C1450.29 525.989 1440.56 524.389 1432.29 521.189C1424.16 517.989 1417.96 513.723 1413.69 508.389C1409.43 503.056 1407.29 497.323 1407.29 491.189C1407.29 486.123 1408.63 482.256 1411.29 479.589C1413.96 476.789 1418.03 475.389 1423.49 475.389C1423.49 486.723 1426.89 495.389 1433.69 501.389C1440.49 507.256 1450.03 510.189 1462.29 510.189C1474.03 510.189 1483.03 508.256 1489.29 504.389C1495.56 500.389 1498.69 494.523 1498.69 486.789C1498.69 482.123 1497.49 478.323 1495.09 475.389C1492.83 472.323 1488.89 469.723 1483.29 467.589C1477.83 465.323 1469.89 463.056 1459.49 460.789C1447.23 458.123 1437.49 455.056 1430.29 451.589C1423.09 447.989 1417.83 443.656 1414.49 438.589C1411.16 433.523 1409.49 427.256 1409.49 419.789C1409.49 412.323 1411.56 405.789 1415.69 400.189C1419.96 394.456 1425.96 390.056 1433.69 386.989C1441.43 383.923 1450.43 382.389 1460.69 382.389C1470.43 382.389 1479.09 383.789 1486.69 386.589C1494.43 389.256 1500.43 393.123 1504.69 398.189C1509.09 403.123 1511.29 408.723 1511.29 414.989C1511.29 418.856 1510.03 421.923 1507.49 424.189C1505.09 426.323 1501.29 427.389 1496.09 427.389C1494.63 417.256 1491.03 409.856 1485.29 405.189C1479.69 400.523 1471.49 398.189 1460.69 398.189C1450.29 398.189 1442.29 400.056 1436.69 403.789C1431.09 407.389 1428.29 412.523 1428.29 419.189C1428.29 423.856 1429.29 427.723 1431.29 430.789C1433.43 433.723 1436.96 436.256 1441.89 438.389C1446.96 440.523 1454.03 442.589 1463.09 444.589C1476.69 447.523 1487.36 450.789 1495.09 454.389C1502.96 457.989 1508.63 462.389 1512.09 467.589C1515.56 472.789 1517.29 479.189 1517.29 486.789C1517.29 498.923 1512.23 508.523 1502.09 515.589C1491.96 522.523 1478.43 525.989 1461.49 525.989Z" fill="white"/>
</g>
<defs>
<filter id="filter0_d_172_2" x="-0.00019455" y="-1.14441e-05" width="1629.55" height="626.729" filterUnits="userSpaceOnUse" color-interpolation-filters="sRGB">
<feFlood flood-opacity="0" result="BackgroundImageFix"/>
<feColorMatrix in="SourceAlpha" type="matrix" values="0 0 0 0 0 0 0 0 0 0 0 0 0 0 0 0 0 0 127 0" result="hardAlpha"/>
<feOffset dx="11" dy="7"/>
<feGaussianBlur stdDeviation="17.9"/>
<feComposite in2="hardAlpha" operator="out"/>
<feColorMatrix type="matrix" values="0 0 0 0 0.392157 0 0 0 0 0.976471 0 0 0 0 0.980392 0 0 0 1 0"/>
<feBlend mode="normal" in2="BackgroundImageFix" result="effect1_dropShadow_172_2"/>
<feBlend mode="normal" in="SourceGraphic" in2="effect1_dropShadow_172_2" result="shape"/>
</filter>
<linearGradient id="paint0_linear_172_2" x1="221.214" y1="54.491" x2="221.214" y2="570.737" gradientUnits="userSpaceOnUse">
<stop stop-color="#0F1724"/>
<stop offset="0.5" stop-color="#66FEFF"/>
<stop offset="1" stop-color="#151726"/>
</linearGradient>
<linearGradient id="paint1_linear_172_2" x1="409.69" y1="40.8" x2="409.69" y2="571.929" gradientUnits="userSpaceOnUse">
<stop stop-color="#0F1724"/>
<stop offset="0.5" stop-color="#66FEFF"/>
<stop offset="1" stop-color="#151726"/>
</linearGradient>
<linearGradient id="paint2_linear_172_2" x1="221.214" y1="52.8804" x2="221.214" y2="569.126" gradientUnits="userSpaceOnUse">
<stop stop-color="#0F1724"/>
<stop offset="0.5" stop-color="#66FEFF"/>
<stop offset="1" stop-color="#151726"/>
</linearGradient>
<linearGradient id="paint3_linear_172_2" x1="409.69" y1="39.1895" x2="409.69" y2="570.319" gradientUnits="userSpaceOnUse">
<stop stop-color="#0F1724"/>
<stop offset="0.5" stop-color="#66FEFF"/>
<stop offset="1" stop-color="#151726"/>
</linearGradient>
</defs>
</svg>
